<svg width="183" height="40" viewBox="0 0 183 40" fill="none" xmlns="http://www.w3.org/2000/svg">
<path d="M163.011 21.0911H182.713C181.92 15.8793 177.952 10.3749 170.162 10.3749C163.31 10.3749 156.714 16.2329 156.714 25.3581C156.714 33.7458 162.871 40 171.009 40C177.263 40 181.329 35.6355 182.969 31.3624L182.475 30.9662C180.439 33.697 177.61 35.3795 173.788 35.3795C167.735 35.3795 162.92 30.9113 162.92 22.9259C162.92 22.2798 162.969 21.6824 163.017 21.0911M163.31 19.0552C164.054 15.5318 165.791 13.3008 167.528 12.1548C172.588 11.9537 175.617 15.8793 176.562 19.0552H163.31ZM149.418 14.142H155.026V10.8686H149.418V1.34105L143.261 6.25419V39.5002H149.418V14.142ZM132.295 39.5002H138.647L136.708 33.1972V19.8964C136.708 13.7519 133.691 10.3749 125.968 10.3688H119.397L118.921 11.6794H125.949C128.016 11.6794 130.259 14.3859 130.503 17.2143L123.109 22.0786C117.659 25.73 114.66 28.1317 114.27 32.1304C112.173 34.331 109.582 35.3795 106.333 35.3795C100.872 35.3795 96.1109 30.9113 96.1109 23.7671C96.1109 17.964 100.079 11.6794 104.773 11.6794H111.362L111.82 10.3688H105.254C96.0744 10.4176 89.8567 17.2935 89.8567 25.6995C89.8567 34.1055 95.9585 39.9939 103.401 39.9939C108.552 39.9939 112.137 37.4825 114.288 34.0689C114.788 37.8116 118.037 39.9939 121.414 39.9939C125.187 39.9939 127.62 37.9092 130.741 34.1359L132.277 39.4941L132.295 39.5002ZM130.558 32.6059C128.223 34.9893 126.589 36.0805 124.352 36.0805C122.115 36.0805 120.134 34.4895 120.134 31.466C120.134 27.8939 122.066 25.9555 126.437 22.2371L130.558 18.7138V32.6059ZM78.7991 39.5002H84.9497V10.8686H78.7991V39.5002ZM78.7991 6.74794H84.9497V1.24352H78.7991V6.75404V6.74794ZM66.1993 39.5002H72.356V0L66.1993 2.63334V39.5002ZM41.8348 22.9259C41.8348 22.2798 41.8836 21.6824 41.9323 21.0911H61.6336C60.8412 15.8793 56.8729 10.3749 49.0765 10.3749C42.2249 10.3749 35.6294 16.2329 35.6294 25.3581C35.6294 33.7458 41.786 40 49.9177 40C56.1719 40 60.2377 35.6355 61.8775 31.3624L61.3776 30.9662C59.3417 33.697 56.5133 35.3795 52.6913 35.3795C46.6382 35.3795 41.8226 30.9113 41.8226 22.9259M42.231 19.0552C42.9747 15.5318 44.712 13.3008 46.4492 12.1548C51.5087 11.9537 54.5382 15.8793 55.4831 19.0552H42.231ZM31.8561 20.3475C31.8561 7.89393 22.4749 2.28589 12.996 2.28589H0V39.5062H11.5148C21.591 39.5062 31.8622 33.057 31.8622 20.3535M25.157 20.445C25.157 30.4724 20.1463 34.8857 14.2396 37.2691H6.54678V4.51692H15.2332C20.7437 6.50411 25.157 10.6736 25.157 20.445Z" fill="white"/>
</svg>
