<svg width="629" height="659" viewBox="0 0 629 659" fill="none" xmlns="http://www.w3.org/2000/svg">
<path d="M2.76729 61.6525H107.474V2.05938H84.4344V34.4302H66.3505V3.73262H43.3112V34.4302H25.8065V2.05938H2.76729V61.6525ZM2.76729 178.329L107.474 134.31V113.201L2.76729 68.4742V98.0777L66.3505 123.498L2.76729 148.725V178.329ZM2.76729 212.309H107.474V185.086H2.76729V212.309ZM25.8065 271.902H107.474V244.679H25.8065V222.155H2.76729V294.362H25.8065V271.838V271.902ZM35.1381 340.827L68.4742 329.693V352.346L35.1381 341.084V340.827ZM2.76729 355.693L107.474 395.979V367.084L89.261 359.876V322.357L107.474 315.535V286.511L2.76729 325.96V355.693ZM2.76729 464.453H107.474V404.86H84.4344V437.231H66.3505V406.533H43.3112V437.231H25.8065V404.86H2.76729V464.453ZM23.6185 529.324C23.6185 515.873 27.8016 510.146 36.6826 510.146C45.5637 510.146 49.7468 516.002 49.7468 529.324V531.705H23.6185V529.324ZM107.474 558.927V531.705H67.1871V531.447L107.474 505.77V471.854L64.5485 504.74C62.0387 490.582 50.1329 481.829 34.945 481.829C13.2572 481.829 2.70293 496.824 2.70293 517.804V558.927H107.474ZM110.305 602.882C110.305 596.511 109.726 592.907 105.414 578.877H72.786C79.8651 584.863 83.9195 593.615 83.9195 602.367C83.9195 618.778 72.5286 630.684 55.4744 630.684C38.4202 630.684 26.4501 618.907 26.4501 602.753C26.4501 593.293 30.6332 584.283 37.9697 578.877H5.27715C1.93066 587.051 0 594.966 0 603.719C0 632.035 22.6531 659 55.2813 659C65.7069 659 74.8454 656.619 82.6324 652.178C99.3005 642.461 110.241 622.704 110.241 602.882M206.71 106.83H233.932V2.05938H206.71V42.4746H167.389V2.05938H140.166V106.766H167.389V63.8406H206.71V106.83ZM336.708 54.0586C336.708 71.5633 323.772 85.3354 307.104 85.3354C290.436 85.3354 277.501 72.0138 277.501 54.0586C277.501 39.0638 291.659 26.4501 306.911 26.4501C322.163 26.4501 336.643 39.3855 336.643 54.0586M365.089 53.8655C365.089 21.7522 336.901 0 307.169 0C298.03 0 285.095 1.93066 272.288 10.8117C266.753 14.673 249.249 27.6085 249.249 55.0883C249.249 82.5681 270.1 111.592 308.005 111.592C337.48 111.592 365.089 90.4838 365.089 53.8012M465.869 89.3254C469.344 82.375 470.438 74.3306 470.438 62.2317V2.05938H443.216V58.3061C443.216 72.0781 441.414 85.6571 424.746 85.6571C408.078 85.6571 406.276 71.6276 406.276 58.1773V2.05938H379.054V62.2317C379.054 79.8651 381.692 89.7115 390.058 97.949C399.647 107.281 413.806 109.597 424.746 109.597C445.469 109.597 459.755 101.553 465.869 89.3254ZM513.557 32.2421C513.557 27.0937 519.091 23.4897 525.205 23.4897C531.705 23.4897 538.14 26.1283 543.224 30.4401L554.036 9.33154C544.19 3.92568 531.512 0.70791 521.151 0.70791C500.299 0.70791 485.176 14.48 485.176 35.846C485.176 58.4991 499.591 61.009 513.492 65.4495C519.477 67.2515 530.032 69.6326 530.032 77.4196C530.032 83.9195 524.497 87.9739 516.71 87.9739C508.923 87.9739 501.458 84.7562 492.705 77.1622L481.057 99.1074C491.74 106.637 504.804 111.078 517.74 111.078C528.423 111.078 538.848 108.31 547.601 101.231C554.551 95.5035 558.412 85.9789 558.412 73.0435C558.412 60.108 552.17 52.9002 542.13 48.0735C537.947 46.0142 533.121 44.5983 527.844 43.0538C517.675 40.1578 513.557 37.0688 513.557 32.3708M595.739 83.7265V65.6426H626.436V42.6033H595.739V25.0986H628.109V2.05938H568.516V106.766H628.109V83.7265H595.739Z" fill="white"/>
<path d="M2.76729 61.6525H107.474V2.05938H84.4344V34.4302H66.3505V3.73262H43.3112V34.4302H25.8065V2.05938H2.76729V61.6525ZM2.76729 178.329L107.474 134.31V113.201L2.76729 68.4742V98.0777L66.3505 123.498L2.76729 148.725V178.329ZM2.76729 212.309H107.474V185.086H2.76729V212.309ZM25.8065 271.902H107.474V244.679H25.8065V222.155H2.76729V294.362H25.8065V271.838V271.902ZM35.1381 340.827L68.4742 329.693V352.346L35.1381 341.084V340.827ZM2.76729 355.693L107.474 395.979V367.084L89.261 359.876V322.357L107.474 315.535V286.511L2.76729 325.96V355.693ZM2.76729 464.453H107.474V404.86H84.4344V437.231H66.3505V406.533H43.3112V437.231H25.8065V404.86H2.76729V464.453ZM23.6185 529.324C23.6185 515.873 27.8016 510.146 36.6826 510.146C45.5637 510.146 49.7468 516.002 49.7468 529.324V531.705H23.6185V529.324ZM107.474 558.927V531.705H67.1871V531.447L107.474 505.77V471.854L64.5485 504.74C62.0387 490.582 50.1329 481.829 34.945 481.829C13.2572 481.829 2.70293 496.824 2.70293 517.804V558.927H107.474ZM110.305 602.882C110.305 596.511 109.726 592.907 105.414 578.877H72.786C79.8651 584.863 83.9195 593.615 83.9195 602.367C83.9195 618.778 72.5286 630.684 55.4744 630.684C38.4202 630.684 26.4501 618.907 26.4501 602.753C26.4501 593.293 30.6332 584.283 37.9697 578.877H5.27715C1.93066 587.051 0 594.966 0 603.719C0 632.035 22.6531 659 55.2813 659C65.7069 659 74.8454 656.619 82.6324 652.178C99.3005 642.461 110.241 622.704 110.241 602.882M206.71 106.83H233.932V2.05938H206.71V42.4746H167.389V2.05938H140.166V106.766H167.389V63.8406H206.71V106.83ZM336.708 54.0586C336.708 71.5633 323.772 85.3354 307.104 85.3354C290.436 85.3354 277.501 72.0138 277.501 54.0586C277.501 39.0638 291.659 26.4501 306.911 26.4501C322.163 26.4501 336.643 39.3855 336.643 54.0586M365.089 53.8655C365.089 21.7522 336.901 0 307.169 0C298.03 0 285.095 1.93066 272.288 10.8117C266.753 14.673 249.249 27.6085 249.249 55.0883C249.249 82.5681 270.1 111.592 308.005 111.592C337.48 111.592 365.089 90.4838 365.089 53.8012M465.869 89.3254C469.344 82.375 470.438 74.3306 470.438 62.2317V2.05938H443.216V58.3061C443.216 72.0781 441.414 85.6571 424.746 85.6571C408.078 85.6571 406.276 71.6276 406.276 58.1773V2.05938H379.054V62.2317C379.054 79.8651 381.692 89.7115 390.058 97.949C399.647 107.281 413.806 109.597 424.746 109.597C445.469 109.597 459.755 101.553 465.869 89.3254ZM513.557 32.2421C513.557 27.0937 519.091 23.4897 525.205 23.4897C531.705 23.4897 538.14 26.1283 543.224 30.4401L554.036 9.33154C544.19 3.92568 531.512 0.70791 521.151 0.70791C500.299 0.70791 485.176 14.48 485.176 35.846C485.176 58.4991 499.591 61.009 513.492 65.4495C519.477 67.2515 530.032 69.6326 530.032 77.4196C530.032 83.9195 524.497 87.9739 516.71 87.9739C508.923 87.9739 501.458 84.7562 492.705 77.1622L481.057 99.1074C491.74 106.637 504.804 111.078 517.74 111.078C528.423 111.078 538.848 108.31 547.601 101.231C554.551 95.5035 558.412 85.9789 558.412 73.0435C558.412 60.108 552.17 52.9002 542.13 48.0735C537.947 46.0142 533.121 44.5983 527.844 43.0538C517.675 40.1578 513.557 37.0688 513.557 32.3708M595.739 83.7265V65.6426H626.436V42.6033H595.739V25.0986H628.109V2.05938H568.516V106.766H628.109V83.7265H595.739Z" fill="white"/>
</svg>
