<svg width="467" height="496" viewBox="0 0 467 496" fill="none" xmlns="http://www.w3.org/2000/svg">
<path d="M392.89 390.252H365.668V494.958H392.89V449.523H393.148L428.286 494.958H463.552L418.117 439.805L463.552 390.252H429.83L393.148 433.434H392.89V390.252ZM382.014 303.372H358.975V363.544H463.681V336.322H422.558V306.461H399.519V336.322H382.014V303.372ZM463.681 261.026H358.975V288.248H463.681V261.026ZM379.826 213.66C379.826 200.21 384.009 194.482 392.89 194.482C401.771 194.482 405.954 200.339 405.954 213.66V216.041H379.826V213.66ZM358.975 202.141V243.264H463.681V216.041H423.395V215.784L463.681 190.106V156.191L420.756 189.076C418.246 174.918 406.34 166.166 391.153 166.166C369.465 166.166 358.91 181.161 358.91 202.141M49.6824 413.355H72.2068V390.316H0V413.355H22.5244V495.022H49.7468V413.355H49.6824ZM151.686 495.022H178.908V390.316H151.686V430.731H112.365V390.316H85.1423V495.022H112.365V452.097H151.686V495.022ZM198.279 495.022H225.502V390.316H198.279V495.022ZM320.619 495.022H347.841V390.316H320.619V454.35H320.362L270.486 390.316H243.264V495.022H270.486V430.86H270.743L320.619 495.022ZM364.767 80.4444C359.361 90.2907 356.143 102.969 356.143 113.33C356.143 134.181 369.915 149.305 391.281 149.305C413.934 149.305 416.444 134.889 420.885 120.988C422.687 115.003 425.068 104.449 432.855 104.449C439.355 104.449 443.409 109.984 443.409 117.771C443.409 125.558 440.191 133.023 432.597 141.775L454.543 153.423C462.072 142.74 466.513 129.676 466.513 116.741C466.513 106.058 463.746 95.6322 456.666 86.8799C450.939 79.9295 441.414 76.0682 428.479 76.0682C415.543 76.0682 408.335 82.3107 403.444 92.2858C401.385 96.4689 399.969 101.295 398.425 106.573C395.529 116.741 392.44 120.86 387.742 120.86C382.593 120.86 378.989 115.325 378.989 109.211C378.989 102.647 381.628 96.2758 385.94 91.1274L364.831 80.3156L364.767 80.4444ZM382.014 49.7468H463.681V22.5244H382.014V0H358.975V72.2068H382.014V49.6824V49.7468Z" fill="white"/>
<path d="M392.89 390.252H365.668V494.958H392.89V449.523H393.148L428.286 494.958H463.552L418.117 439.805L463.552 390.252H429.83L393.148 433.434H392.89V390.252ZM382.014 303.372H358.975V363.544H463.681V336.322H422.558V306.461H399.519V336.322H382.014V303.372ZM463.681 261.026H358.975V288.248H463.681V261.026ZM379.826 213.66C379.826 200.21 384.009 194.482 392.89 194.482C401.771 194.482 405.954 200.339 405.954 213.66V216.041H379.826V213.66ZM358.975 202.141V243.264H463.681V216.041H423.395V215.784L463.681 190.106V156.191L420.756 189.076C418.246 174.918 406.34 166.166 391.153 166.166C369.465 166.166 358.91 181.161 358.91 202.141M49.6824 413.355H72.2068V390.316H0V413.355H22.5244V495.022H49.7468V413.355H49.6824ZM151.686 495.022H178.908V390.316H151.686V430.731H112.365V390.316H85.1423V495.022H112.365V452.097H151.686V495.022ZM198.279 495.022H225.502V390.316H198.279V495.022ZM320.619 495.022H347.841V390.316H320.619V454.35H320.362L270.486 390.316H243.264V495.022H270.486V430.86H270.743L320.619 495.022ZM364.767 80.4444C359.361 90.2907 356.143 102.969 356.143 113.33C356.143 134.181 369.915 149.305 391.281 149.305C413.934 149.305 416.444 134.889 420.885 120.988C422.687 115.003 425.068 104.449 432.855 104.449C439.355 104.449 443.409 109.984 443.409 117.771C443.409 125.558 440.191 133.023 432.597 141.775L454.543 153.423C462.072 142.74 466.513 129.676 466.513 116.741C466.513 106.058 463.746 95.6322 456.666 86.8799C450.939 79.9295 441.414 76.0682 428.479 76.0682C415.543 76.0682 408.335 82.3107 403.444 92.2858C401.385 96.4689 399.969 101.295 398.425 106.573C395.529 116.741 392.44 120.86 387.742 120.86C382.593 120.86 378.989 115.325 378.989 109.211C378.989 102.647 381.628 96.2758 385.94 91.1274L364.831 80.3156L364.767 80.4444ZM382.014 49.7468H463.681V22.5244H382.014V0H358.975V72.2068H382.014V49.6824V49.7468Z" fill="white"/>
</svg>
